STARTFONT 2.1
COMMENT The X10 name for this font was "nil2"
COMMENT All dots removed, changed name by wedler@users.sourceforge.net
COMMENT Probably just temporarily used for X-Symbol on Emacs
FONT -XSYMB-nil-medium-r-normal--2-20-75-75-c-10-misc-fontspecific
SIZE 2 75 75
FONTBOUNDINGBOX 1 2 0 0
STARTPROPERTIES 19
FOUNDRY "XSYMB"
FAMILY_NAME "Nil"
WEIGHT_NAME "Medium"
SLANT "R"
SETWIDTH_NAME "Normal"
ADD_STYLE_NAME ""
PIXEL_SIZE 2
POINT_SIZE 20
RESOLUTION_X 75
RESOLUTION_Y 75
SPACING "C"
AVERAGE_WIDTH 10
CHARSET_REGISTRY "Misc"
CHARSET_ENCODING "FontSpecific"
UNDERLINE_POSITION 1
DESTINATION 1
DEFAULT_CHAR 0
FONT_DESCENT 0
FONT_ASCENT 2
ENDPROPERTIES
CHARS 224
STARTCHAR C000
ENCODING 0
SWIDTH 1 0
DWIDTH 1 0
BBX 1 2 0 0
BITMAP
00
00
ENDCHAR
STARTCHAR C001
ENCODING 1
SWIDTH 1 0
DWIDTH 1 0
BBX 1 2 0 0
BITMAP
00
00
ENDCHAR
STARTCHAR C002
ENCODING 2
SWIDTH 1 0
DWIDTH 1 0
BBX 1 2 0 0
BITMAP
00
00
ENDCHAR
STARTCHAR C003
ENCODING 3
SWIDTH 1 0
DWIDTH 1 0
BBX 1 2 0 0
BITMAP
00
00
ENDCHAR
STARTCHAR C004
ENCODING 4
SWIDTH 1 0
DWIDTH 1 0
BBX 1 2 0 0
BITMAP
00
00
ENDCHAR
STARTCHAR C005
ENCODING 5
SWIDTH 1 0
DWIDTH 1 0
BBX 1 2 0 0
BITMAP
00
00
ENDCHAR
STARTCHAR C006
ENCODING 6
SWIDTH 1 0
DWIDTH 1 0
BBX 1 2 0 0
BITMAP
00
00
ENDCHAR
STARTCHAR C007
ENCODING 7
SWIDTH 1 0
DWIDTH 1 0
BBX 1 2 0 0
BITMAP
00
00
ENDCHAR
STARTCHAR C010
ENCODING 8
SWIDTH 1 0
DWIDTH 1 0
BBX 1 2 0 0
BITMAP
00
00
ENDCHAR
STARTCHAR C011
ENCODING 9
SWIDTH 1 0
DWIDTH 1 0
BBX 1 2 0 0
BITMAP
00
00
ENDCHAR
STARTCHAR C012
ENCODING 10
SWIDTH 1 0
DWIDTH 1 0
BBX 1 2 0 0
BITMAP
00
00
ENDCHAR
STARTCHAR C013
ENCODING 11
SWIDTH 1 0
DWIDTH 1 0
BBX 1 2 0 0
BITMAP
00
00
ENDCHAR
STARTCHAR C014
ENCODING 12
SWIDTH 1 0
DWIDTH 1 0
BBX 1 2 0 0
BITMAP
00
00
ENDCHAR
STARTCHAR C015
ENCODING 13
SWIDTH 1 0
DWIDTH 1 0
BBX 1 2 0 0
BITMAP
00
00
ENDCHAR
STARTCHAR C016
ENCODING 14
SWIDTH 1 0
DWIDTH 1 0
BBX 1 2 0 0
BITMAP
00
00
ENDCHAR
STARTCHAR C017
ENCODING 15
SWIDTH 1 0
DWIDTH 1 0
BBX 1 2 0 0
BITMAP
00
00
ENDCHAR
STARTCHAR C020
ENCODING 16
SWIDTH 1 0
DWIDTH 1 0
BBX 1 2 0 0
BITMAP
00
00
ENDCHAR
STARTCHAR C021
ENCODING 17
SWIDTH 1 0
DWIDTH 1 0
BBX 1 2 0 0
BITMAP
00
00
ENDCHAR
STARTCHAR C022
ENCODING 18
SWIDTH 1 0
DWIDTH 1 0
BBX 1 2 0 0
BITMAP
00
00
ENDCHAR
STARTCHAR C023
ENCODING 19
SWIDTH 1 0
DWIDTH 1 0
BBX 1 2 0 0
BITMAP
00
00
ENDCHAR
STARTCHAR C024
ENCODING 20
SWIDTH 1 0
DWIDTH 1 0
BBX 1 2 0 0
BITMAP
00
00
ENDCHAR
STARTCHAR C025
ENCODING 21
SWIDTH 1 0
DWIDTH 1 0
BBX 1 2 0 0
BITMAP
00
00
ENDCHAR
STARTCHAR C026
ENCODING 22
SWIDTH 1 0
DWIDTH 1 0
BBX 1 2 0 0
BITMAP
00
00
ENDCHAR
STARTCHAR C027
ENCODING 23
SWIDTH 1 0
DWIDTH 1 0
BBX 1 2 0 0
BITMAP
00
00
ENDCHAR
STARTCHAR C030
ENCODING 24
SWIDTH 1 0
DWIDTH 1 0
BBX 1 2 0 0
BITMAP
00
00
ENDCHAR
STARTCHAR C031
ENCODING 25
SWIDTH 1 0
DWIDTH 1 0
BBX 1 2 0 0
BITMAP
00
00
ENDCHAR
STARTCHAR C032
ENCODING 26
SWIDTH 1 0
DWIDTH 1 0
BBX 1 2 0 0
BITMAP
00
00
ENDCHAR
STARTCHAR C033
ENCODING 27
SWIDTH 1 0
DWIDTH 1 0
BBX 1 2 0 0
BITMAP
00
00
ENDCHAR
STARTCHAR C034
ENCODING 28
SWIDTH 1 0
DWIDTH 1 0
BBX 1 2 0 0
BITMAP
00
00
ENDCHAR
STARTCHAR C035
ENCODING 29
SWIDTH 1 0
DWIDTH 1 0
BBX 1 2 0 0
BITMAP
00
00
ENDCHAR
STARTCHAR C036
ENCODING 30
SWIDTH 1 0
DWIDTH 1 0
BBX 1 2 0 0
BITMAP
00
00
ENDCHAR
STARTCHAR C037
ENCODING 31
SWIDTH 1 0
DWIDTH 1 0
BBX 1 2 0 0
BITMAP
00
00
ENDCHAR
STARTCHAR Space
ENCODING 32
SWIDTH 1 0
DWIDTH 1 0
BBX 1 2 0 0
BITMAP
00
00
ENDCHAR
STARTCHAR !
ENCODING 33
SWIDTH 1 0
DWIDTH 1 0
BBX 1 2 0 0
BITMAP
00
00
ENDCHAR
STARTCHAR "
ENCODING 34
SWIDTH 1 0
DWIDTH 1 0
BBX 1 2 0 0
BITMAP
00
00
ENDCHAR
STARTCHAR #
ENCODING 35
SWIDTH 1 0
DWIDTH 1 0
BBX 1 2 0 0
BITMAP
00
00
ENDCHAR
STARTCHAR $
ENCODING 36
SWIDTH 1 0
DWIDTH 1 0
BBX 1 2 0 0
BITMAP
00
00
ENDCHAR
STARTCHAR %
ENCODING 37
SWIDTH 1 0
DWIDTH 1 0
BBX 1 2 0 0
BITMAP
00
00
ENDCHAR
STARTCHAR &
ENCODING 38
SWIDTH 1 0
DWIDTH 1 0
BBX 1 2 0 0
BITMAP
00
00
ENDCHAR
STARTCHAR '
ENCODING 39
SWIDTH 1 0
DWIDTH 1 0
BBX 1 2 0 0
BITMAP
00
00
ENDCHAR
STARTCHAR (
ENCODING 40
SWIDTH 1 0
DWIDTH 1 0
BBX 1 2 0 0
BITMAP
00
00
ENDCHAR
STARTCHAR )
ENCODING 41
SWIDTH 1 0
DWIDTH 1 0
BBX 1 2 0 0
BITMAP
00
00
ENDCHAR
STARTCHAR *
ENCODING 42
SWIDTH 1 0
DWIDTH 1 0
BBX 1 2 0 0
BITMAP
00
00
ENDCHAR
STARTCHAR +
ENCODING 43
SWIDTH 1 0
DWIDTH 1 0
BBX 1 2 0 0
BITMAP
00
00
ENDCHAR
STARTCHAR ,
ENCODING 44
SWIDTH 1 0
DWIDTH 1 0
BBX 1 2 0 0
BITMAP
00
00
ENDCHAR
STARTCHAR -
ENCODING 45
SWIDTH 1 0
DWIDTH 1 0
BBX 1 2 0 0
BITMAP
00
00
ENDCHAR
STARTCHAR .
ENCODING 46
SWIDTH 1 0
DWIDTH 1 0
BBX 1 2 0 0
BITMAP
00
00
ENDCHAR
STARTCHAR /
ENCODING 47
SWIDTH 1 0
DWIDTH 1 0
BBX 1 2 0 0
BITMAP
00
00
ENDCHAR
STARTCHAR 0
ENCODING 48
SWIDTH 1 0
DWIDTH 1 0
BBX 1 2 0 0
BITMAP
00
00
ENDCHAR
STARTCHAR 1
ENCODING 49
SWIDTH 1 0
DWIDTH 1 0
BBX 1 2 0 0
BITMAP
00
00
ENDCHAR
STARTCHAR 2
ENCODING 50
SWIDTH 1 0
DWIDTH 1 0
BBX 1 2 0 0
BITMAP
00
00
ENDCHAR
STARTCHAR 3
ENCODING 51
SWIDTH 1 0
DWIDTH 1 0
BBX 1 2 0 0
BITMAP
00
00
ENDCHAR
STARTCHAR 4
ENCODING 52
SWIDTH 1 0
DWIDTH 1 0
BBX 1 2 0 0
BITMAP
00
00
ENDCHAR
STARTCHAR 5
ENCODING 53
SWIDTH 1 0
DWIDTH 1 0
BBX 1 2 0 0
BITMAP
00
00
ENDCHAR
STARTCHAR 6
ENCODING 54
SWIDTH 1 0
DWIDTH 1 0
BBX 1 2 0 0
BITMAP
00
00
ENDCHAR
STARTCHAR 7
ENCODING 55
SWIDTH 1 0
DWIDTH 1 0
BBX 1 2 0 0
BITMAP
00
00
ENDCHAR
STARTCHAR 8
ENCODING 56
SWIDTH 1 0
DWIDTH 1 0
BBX 1 2 0 0
BITMAP
00
00
ENDCHAR
STARTCHAR 9
ENCODING 57
SWIDTH 1 0
DWIDTH 1 0
BBX 1 2 0 0
BITMAP
00
00
ENDCHAR
STARTCHAR :
ENCODING 58
SWIDTH 1 0
DWIDTH 1 0
BBX 1 2 0 0
BITMAP
00
00
ENDCHAR
STARTCHAR ;
ENCODING 59
SWIDTH 1 0
DWIDTH 1 0
BBX 1 2 0 0
BITMAP
00
00
ENDCHAR
STARTCHAR <
ENCODING 60
SWIDTH 1 0
DWIDTH 1 0
BBX 1 2 0 0
BITMAP
00
00
ENDCHAR
STARTCHAR =
ENCODING 61
SWIDTH 1 0
DWIDTH 1 0
BBX 1 2 0 0
BITMAP
00
00
ENDCHAR
STARTCHAR >
ENCODING 62
SWIDTH 1 0
DWIDTH 1 0
BBX 1 2 0 0
BITMAP
00
00
ENDCHAR
STARTCHAR ?
ENCODING 63
SWIDTH 1 0
DWIDTH 1 0
BBX 1 2 0 0
BITMAP
00
00
ENDCHAR
STARTCHAR @
ENCODING 64
SWIDTH 1 0
DWIDTH 1 0
BBX 1 2 0 0
BITMAP
00
00
ENDCHAR
STARTCHAR A
ENCODING 65
SWIDTH 1 0
DWIDTH 1 0
BBX 1 2 0 0
BITMAP
00
00
ENDCHAR
STARTCHAR B
ENCODING 66
SWIDTH 1 0
DWIDTH 1 0
BBX 1 2 0 0
BITMAP
00
00
ENDCHAR
STARTCHAR C
ENCODING 67
SWIDTH 1 0
DWIDTH 1 0
BBX 1 2 0 0
BITMAP
00
00
ENDCHAR
STARTCHAR D
ENCODING 68
SWIDTH 1 0
DWIDTH 1 0
BBX 1 2 0 0
BITMAP
00
00
ENDCHAR
STARTCHAR E
ENCODING 69
SWIDTH 1 0
DWIDTH 1 0
BBX 1 2 0 0
BITMAP
00
00
ENDCHAR
STARTCHAR F
ENCODING 70
SWIDTH 1 0
DWIDTH 1 0
BBX 1 2 0 0
BITMAP
00
00
ENDCHAR
STARTCHAR G
ENCODING 71
SWIDTH 1 0
DWIDTH 1 0
BBX 1 2 0 0
BITMAP
00
00
ENDCHAR
STARTCHAR H
ENCODING 72
SWIDTH 1 0
DWIDTH 1 0
BBX 1 2 0 0
BITMAP
00
00
ENDCHAR
STARTCHAR I
ENCODING 73
SWIDTH 1 0
DWIDTH 1 0
BBX 1 2 0 0
BITMAP
00
00
ENDCHAR
STARTCHAR J
ENCODING 74
SWIDTH 1 0
DWIDTH 1 0
BBX 1 2 0 0
BITMAP
00
00
ENDCHAR
STARTCHAR K
ENCODING 75
SWIDTH 1 0
DWIDTH 1 0
BBX 1 2 0 0
BITMAP
00
00
ENDCHAR
STARTCHAR L
ENCODING 76
SWIDTH 1 0
DWIDTH 1 0
BBX 1 2 0 0
BITMAP
00
00
ENDCHAR
STARTCHAR M
ENCODING 77
SWIDTH 1 0
DWIDTH 1 0
BBX 1 2 0 0
BITMAP
00
00
ENDCHAR
STARTCHAR N
ENCODING 78
SWIDTH 1 0
DWIDTH 1 0
BBX 1 2 0 0
BITMAP
00
00
ENDCHAR
STARTCHAR O
ENCODING 79
SWIDTH 1 0
DWIDTH 1 0
BBX 1 2 0 0
BITMAP
00
00
ENDCHAR
STARTCHAR P
ENCODING 80
SWIDTH 1 0
DWIDTH 1 0
BBX 1 2 0 0
BITMAP
00
00
ENDCHAR
STARTCHAR Q
ENCODING 81
SWIDTH 1 0
DWIDTH 1 0
BBX 1 2 0 0
BITMAP
00
00
ENDCHAR
STARTCHAR R
ENCODING 82
SWIDTH 1 0
DWIDTH 1 0
BBX 1 2 0 0
BITMAP
00
00
ENDCHAR
STARTCHAR S
ENCODING 83
SWIDTH 1 0
DWIDTH 1 0
BBX 1 2 0 0
BITMAP
00
00
ENDCHAR
STARTCHAR T
ENCODING 84
SWIDTH 1 0
DWIDTH 1 0
BBX 1 2 0 0
BITMAP
00
00
ENDCHAR
STARTCHAR U
ENCODING 85
SWIDTH 1 0
DWIDTH 1 0
BBX 1 2 0 0
BITMAP
00
00
ENDCHAR
STARTCHAR V
ENCODING 86
SWIDTH 1 0
DWIDTH 1 0
BBX 1 2 0 0
BITMAP
00
00
ENDCHAR
STARTCHAR W
ENCODING 87
SWIDTH 1 0
DWIDTH 1 0
BBX 1 2 0 0
BITMAP
00
00
ENDCHAR
STARTCHAR X
ENCODING 88
SWIDTH 1 0
DWIDTH 1 0
BBX 1 2 0 0
BITMAP
00
00
ENDCHAR
STARTCHAR Y
ENCODING 89
SWIDTH 1 0
DWIDTH 1 0
BBX 1 2 0 0
BITMAP
00
00
ENDCHAR
STARTCHAR Z
ENCODING 90
SWIDTH 1 0
DWIDTH 1 0
BBX 1 2 0 0
BITMAP
00
00
ENDCHAR
STARTCHAR [
ENCODING 91
SWIDTH 1 0
DWIDTH 1 0
BBX 1 2 0 0
BITMAP
00
00
ENDCHAR
STARTCHAR \
ENCODING 92
SWIDTH 1 0
DWIDTH 1 0
BBX 1 2 0 0
BITMAP
00
00
ENDCHAR
STARTCHAR ]
ENCODING 93
SWIDTH 1 0
DWIDTH 1 0
BBX 1 2 0 0
BITMAP
00
00
ENDCHAR
STARTCHAR ^
ENCODING 94
SWIDTH 1 0
DWIDTH 1 0
BBX 1 2 0 0
BITMAP
00
00
ENDCHAR
STARTCHAR _
ENCODING 95
SWIDTH 1 0
DWIDTH 1 0
BBX 1 2 0 0
BITMAP
00
00
ENDCHAR
STARTCHAR `
ENCODING 96
SWIDTH 1 0
DWIDTH 1 0
BBX 1 2 0 0
BITMAP
00
00
ENDCHAR
STARTCHAR a
ENCODING 97
SWIDTH 1 0
DWIDTH 1 0
BBX 1 2 0 0
BITMAP
00
00
ENDCHAR
STARTCHAR b
ENCODING 98
SWIDTH 1 0
DWIDTH 1 0
BBX 1 2 0 0
BITMAP
00
00
ENDCHAR
STARTCHAR c
ENCODING 99
SWIDTH 1 0
DWIDTH 1 0
BBX 1 2 0 0
BITMAP
00
00
ENDCHAR
STARTCHAR d
ENCODING 100
SWIDTH 1 0
DWIDTH 1 0
BBX 1 2 0 0
BITMAP
00
00
ENDCHAR
STARTCHAR e
ENCODING 101
SWIDTH 1 0
DWIDTH 1 0
BBX 1 2 0 0
BITMAP
00
00
ENDCHAR
STARTCHAR f
ENCODING 102
SWIDTH 1 0
DWIDTH 1 0
BBX 1 2 0 0
BITMAP
00
00
ENDCHAR
STARTCHAR g
ENCODING 103
SWIDTH 1 0
DWIDTH 1 0
BBX 1 2 0 0
BITMAP
00
00
ENDCHAR
STARTCHAR h
ENCODING 104
SWIDTH 1 0
DWIDTH 1 0
BBX 1 2 0 0
BITMAP
00
00
ENDCHAR
STARTCHAR i
ENCODING 105
SWIDTH 1 0
DWIDTH 1 0
BBX 1 2 0 0
BITMAP
00
00
ENDCHAR
STARTCHAR j
ENCODING 106
SWIDTH 1 0
DWIDTH 1 0
BBX 1 2 0 0
BITMAP
00
00
ENDCHAR
STARTCHAR k
ENCODING 107
SWIDTH 1 0
DWIDTH 1 0
BBX 1 2 0 0
BITMAP
00
00
ENDCHAR
STARTCHAR l
ENCODING 108
SWIDTH 1 0
DWIDTH 1 0
BBX 1 2 0 0
BITMAP
00
00
ENDCHAR
STARTCHAR m
ENCODING 109
SWIDTH 1 0
DWIDTH 1 0
BBX 1 2 0 0
BITMAP
00
00
ENDCHAR
STARTCHAR n
ENCODING 110
SWIDTH 1 0
DWIDTH 1 0
BBX 1 2 0 0
BITMAP
00
00
ENDCHAR
STARTCHAR o
ENCODING 111
SWIDTH 1 0
DWIDTH 1 0
BBX 1 2 0 0
BITMAP
00
00
ENDCHAR
STARTCHAR p
ENCODING 112
SWIDTH 1 0
DWIDTH 1 0
BBX 1 2 0 0
BITMAP
00
00
ENDCHAR
STARTCHAR q
ENCODING 113
SWIDTH 1 0
DWIDTH 1 0
BBX 1 2 0 0
BITMAP
00
00
ENDCHAR
STARTCHAR r
ENCODING 114
SWIDTH 1 0
DWIDTH 1 0
BBX 1 2 0 0
BITMAP
00
00
ENDCHAR
STARTCHAR s
ENCODING 115
SWIDTH 1 0
DWIDTH 1 0
BBX 1 2 0 0
BITMAP
00
00
ENDCHAR
STARTCHAR t
ENCODING 116
SWIDTH 1 0
DWIDTH 1 0
BBX 1 2 0 0
BITMAP
00
00
ENDCHAR
STARTCHAR u
ENCODING 117
SWIDTH 1 0
DWIDTH 1 0
BBX 1 2 0 0
BITMAP
00
00
ENDCHAR
STARTCHAR v
ENCODING 118
SWIDTH 1 0
DWIDTH 1 0
BBX 1 2 0 0
BITMAP
00
00
ENDCHAR
STARTCHAR w
ENCODING 119
SWIDTH 1 0
DWIDTH 1 0
BBX 1 2 0 0
BITMAP
00
00
ENDCHAR
STARTCHAR x
ENCODING 120
SWIDTH 1 0
DWIDTH 1 0
BBX 1 2 0 0
BITMAP
00
00
ENDCHAR
STARTCHAR y
ENCODING 121
SWIDTH 1 0
DWIDTH 1 0
BBX 1 2 0 0
BITMAP
00
00
ENDCHAR
STARTCHAR z
ENCODING 122
SWIDTH 1 0
DWIDTH 1 0
BBX 1 2 0 0
BITMAP
00
00
ENDCHAR
STARTCHAR {
ENCODING 123
SWIDTH 1 0
DWIDTH 1 0
BBX 1 2 0 0
BITMAP
00
00
ENDCHAR
STARTCHAR |
ENCODING 124
SWIDTH 1 0
DWIDTH 1 0
BBX 1 2 0 0
BITMAP
00
00
ENDCHAR
STARTCHAR }
ENCODING 125
SWIDTH 1 0
DWIDTH 1 0
BBX 1 2 0 0
BITMAP
00
00
ENDCHAR
STARTCHAR ~
ENCODING 126
SWIDTH 1 0
DWIDTH 1 0
BBX 1 2 0 0
BITMAP
00
00
ENDCHAR
STARTCHAR C177
ENCODING 127
SWIDTH 1 0
DWIDTH 1 0
BBX 1 2 0 0
BITMAP
00
00
ENDCHAR
STARTCHAR NoBreakSpace
ENCODING 160
SWIDTH 1 0
DWIDTH 1 0
BBX 1 2 0 0
BITMAP
00
00
ENDCHAR
STARTCHAR InvertExcl
ENCODING 161
SWIDTH 1 0
DWIDTH 1 0
BBX 1 2 0 0
BITMAP
00
00
ENDCHAR
STARTCHAR cent
ENCODING 162
SWIDTH 1 0
DWIDTH 1 0
BBX 1 2 0 0
BITMAP
00
00
ENDCHAR
STARTCHAR PoundSterling
ENCODING 163
SWIDTH 1 0
DWIDTH 1 0
BBX 1 2 0 0
BITMAP
00
00
ENDCHAR
STARTCHAR currency
ENCODING 164
SWIDTH 1 0
DWIDTH 1 0
BBX 1 2 0 0
BITMAP
00
00
ENDCHAR
STARTCHAR yen
ENCODING 165
SWIDTH 1 0
DWIDTH 1 0
BBX 1 2 0 0
BITMAP
00
00
ENDCHAR
STARTCHAR BrokenBar
ENCODING 166
SWIDTH 1 0
DWIDTH 1 0
BBX 1 2 0 0
BITMAP
00
00
ENDCHAR
STARTCHAR section
ENCODING 167
SWIDTH 1 0
DWIDTH 1 0
BBX 1 2 0 0
BITMAP
00
00
ENDCHAR
STARTCHAR diaeresis
ENCODING 168
SWIDTH 1 0
DWIDTH 1 0
BBX 1 2 0 0
BITMAP
00
00
ENDCHAR
STARTCHAR copyright
ENCODING 169
SWIDTH 1 0
DWIDTH 1 0
BBX 1 2 0 0
BITMAP
00
00
ENDCHAR
STARTCHAR FemOrdinal
ENCODING 170
SWIDTH 1 0
DWIDTH 1 0
BBX 1 2 0 0
BITMAP
00
00
ENDCHAR
STARTCHAR StartAngleQuote
ENCODING 171
SWIDTH 1 0
DWIDTH 1 0
BBX 1 2 0 0
BITMAP
00
00
ENDCHAR
STARTCHAR Not
ENCODING 172
SWIDTH 1 0
DWIDTH 1 0
BBX 1 2 0 0
BITMAP
00
00
ENDCHAR
STARTCHAR SoftHyphen
ENCODING 173
SWIDTH 1 0
DWIDTH 1 0
BBX 1 2 0 0
BITMAP
00
00
ENDCHAR
STARTCHAR Registered
ENCODING 174
SWIDTH 1 0
DWIDTH 1 0
BBX 1 2 0 0
BITMAP
00
00
ENDCHAR
STARTCHAR macron
ENCODING 175
SWIDTH 1 0
DWIDTH 1 0
BBX 1 2 0 0
BITMAP
00
00
ENDCHAR
STARTCHAR degree
ENCODING 176
SWIDTH 1 0
DWIDTH 1 0
BBX 1 2 0 0
BITMAP
00
00
ENDCHAR
STARTCHAR PlusMinus
ENCODING 177
SWIDTH 1 0
DWIDTH 1 0
BBX 1 2 0 0
BITMAP
00
00
ENDCHAR
STARTCHAR Super2
ENCODING 178
SWIDTH 1 0
DWIDTH 1 0
BBX 1 2 0 0
BITMAP
00
00
ENDCHAR
STARTCHAR Super3
ENCODING 179
SWIDTH 1 0
DWIDTH 1 0
BBX 1 2 0 0
BITMAP
00
00
ENDCHAR
STARTCHAR acute
ENCODING 180
SWIDTH 1 0
DWIDTH 1 0
BBX 1 2 0 0
BITMAP
00
00
ENDCHAR
STARTCHAR micro
ENCODING 181
SWIDTH 1 0
DWIDTH 1 0
BBX 1 2 0 0
BITMAP
00
00
ENDCHAR
STARTCHAR paragraph
ENCODING 182
SWIDTH 1 0
DWIDTH 1 0
BBX 1 2 0 0
BITMAP
00
00
ENDCHAR
STARTCHAR cdot
ENCODING 183
SWIDTH 1 0
DWIDTH 1 0
BBX 1 2 0 0
BITMAP
00
00
ENDCHAR
STARTCHAR cedilla
ENCODING 184
SWIDTH 1 0
DWIDTH 1 0
BBX 1 2 0 0
BITMAP
00
00
ENDCHAR
STARTCHAR Super1
ENCODING 185
SWIDTH 1 0
DWIDTH 1 0
BBX 1 2 0 0
BITMAP
00
00
ENDCHAR
STARTCHAR MascOrdinal
ENCODING 186
SWIDTH 1 0
DWIDTH 1 0
BBX 1 2 0 0
BITMAP
00
00
ENDCHAR
STARTCHAR EndAngleQuote
ENCODING 187
SWIDTH 1 0
DWIDTH 1 0
BBX 1 2 0 0
BITMAP
00
00
ENDCHAR
STARTCHAR OneQuarter
ENCODING 188
SWIDTH 1 0
DWIDTH 1 0
BBX 1 2 0 0
BITMAP
00
00
ENDCHAR
STARTCHAR OneHalf
ENCODING 189
SWIDTH 1 0
DWIDTH 1 0
BBX 1 2 0 0
BITMAP
00
00
ENDCHAR
STARTCHAR ThreeQuarters
ENCODING 190
SWIDTH 1 0
DWIDTH 1 0
BBX 1 2 0 0
BITMAP
00
00
ENDCHAR
STARTCHAR InvertQuestion
ENCODING 191
SWIDTH 1 0
DWIDTH 1 0
BBX 1 2 0 0
BITMAP
00
00
ENDCHAR
STARTCHAR C192
ENCODING 192
SWIDTH 1 0
DWIDTH 1 0
BBX 1 2 0 0
BITMAP
00
00
ENDCHAR
STARTCHAR C193
ENCODING 193
SWIDTH 1 0
DWIDTH 1 0
BBX 1 2 0 0
BITMAP
00
00
ENDCHAR
STARTCHAR C194
ENCODING 194
SWIDTH 1 0
DWIDTH 1 0
BBX 1 2 0 0
BITMAP
00
00
ENDCHAR
STARTCHAR C195
ENCODING 195
SWIDTH 1 0
DWIDTH 1 0
BBX 1 2 0 0
BITMAP
00
00
ENDCHAR
STARTCHAR C196
ENCODING 196
SWIDTH 1 0
DWIDTH 1 0
BBX 1 2 0 0
BITMAP
00
00
ENDCHAR
STARTCHAR C197
ENCODING 197
SWIDTH 1 0
DWIDTH 1 0
BBX 1 2 0 0
BITMAP
00
00
ENDCHAR
STARTCHAR C198
ENCODING 198
SWIDTH 1 0
DWIDTH 1 0
BBX 1 2 0 0
BITMAP
00
00
ENDCHAR
STARTCHAR C199
ENCODING 199
SWIDTH 1 0
DWIDTH 1 0
BBX 1 2 0 0
BITMAP
00
00
ENDCHAR
STARTCHAR C200
ENCODING 200
SWIDTH 1 0
DWIDTH 1 0
BBX 1 2 0 0
BITMAP
00
00
ENDCHAR
STARTCHAR C201
ENCODING 201
SWIDTH 1 0
DWIDTH 1 0
BBX 1 2 0 0
BITMAP
00
00
ENDCHAR
STARTCHAR C202
ENCODING 202
SWIDTH 1 0
DWIDTH 1 0
BBX 1 2 0 0
BITMAP
00
00
ENDCHAR
STARTCHAR C203
ENCODING 203
SWIDTH 1 0
DWIDTH 1 0
BBX 1 2 0 0
BITMAP
00
00
ENDCHAR
STARTCHAR C204
ENCODING 204
SWIDTH 1 0
DWIDTH 1 0
BBX 1 2 0 0
BITMAP
00
00
ENDCHAR
STARTCHAR C205
ENCODING 205
SWIDTH 1 0
DWIDTH 1 0
BBX 1 2 0 0
BITMAP
00
00
ENDCHAR
STARTCHAR C206
ENCODING 206
SWIDTH 1 0
DWIDTH 1 0
BBX 1 2 0 0
BITMAP
00
00
ENDCHAR
STARTCHAR C207
ENCODING 207
SWIDTH 1 0
DWIDTH 1 0
BBX 1 2 0 0
BITMAP
00
00
ENDCHAR
STARTCHAR C208
ENCODING 208
SWIDTH 1 0
DWIDTH 1 0
BBX 1 2 0 0
BITMAP
00
00
ENDCHAR
STARTCHAR C209
ENCODING 209
SWIDTH 1 0
DWIDTH 1 0
BBX 1 2 0 0
BITMAP
00
00
ENDCHAR
STARTCHAR C210
ENCODING 210
SWIDTH 1 0
DWIDTH 1 0
BBX 1 2 0 0
BITMAP
00
00
ENDCHAR
STARTCHAR C211
ENCODING 211
SWIDTH 1 0
DWIDTH 1 0
BBX 1 2 0 0
BITMAP
00
00
ENDCHAR
STARTCHAR C212
ENCODING 212
SWIDTH 1 0
DWIDTH 1 0
BBX 1 2 0 0
BITMAP
00
00
ENDCHAR
STARTCHAR C213
ENCODING 213
SWIDTH 1 0
DWIDTH 1 0
BBX 1 2 0 0
BITMAP
00
00
ENDCHAR
STARTCHAR C214
ENCODING 214
SWIDTH 1 0
DWIDTH 1 0
BBX 1 2 0 0
BITMAP
00
00
ENDCHAR
STARTCHAR C215
ENCODING 215
SWIDTH 1 0
DWIDTH 1 0
BBX 1 2 0 0
BITMAP
00
00
ENDCHAR
STARTCHAR C216
ENCODING 216
SWIDTH 1 0
DWIDTH 1 0
BBX 1 2 0 0
BITMAP
00
00
ENDCHAR
STARTCHAR C217
ENCODING 217
SWIDTH 1 0
DWIDTH 1 0
BBX 1 2 0 0
BITMAP
00
00
ENDCHAR
STARTCHAR C218
ENCODING 218
SWIDTH 1 0
DWIDTH 1 0
BBX 1 2 0 0
BITMAP
00
00
ENDCHAR
STARTCHAR C219
ENCODING 219
SWIDTH 1 0
DWIDTH 1 0
BBX 1 2 0 0
BITMAP
00
00
ENDCHAR
STARTCHAR C220
ENCODING 220
SWIDTH 1 0
DWIDTH 1 0
BBX 1 2 0 0
BITMAP
00
00
ENDCHAR
STARTCHAR C221
ENCODING 221
SWIDTH 1 0
DWIDTH 1 0
BBX 1 2 0 0
BITMAP
00
00
ENDCHAR
STARTCHAR C222
ENCODING 222
SWIDTH 1 0
DWIDTH 1 0
BBX 1 2 0 0
BITMAP
00
00
ENDCHAR
STARTCHAR C223
ENCODING 223
SWIDTH 1 0
DWIDTH 1 0
BBX 1 2 0 0
BITMAP
00
00
ENDCHAR
STARTCHAR C224
ENCODING 224
SWIDTH 1 0
DWIDTH 1 0
BBX 1 2 0 0
BITMAP
00
00
ENDCHAR
STARTCHAR C225
ENCODING 225
SWIDTH 1 0
DWIDTH 1 0
BBX 1 2 0 0
BITMAP
00
00
ENDCHAR
STARTCHAR C226
ENCODING 226
SWIDTH 1 0
DWIDTH 1 0
BBX 1 2 0 0
BITMAP
00
00
ENDCHAR
STARTCHAR C227
ENCODING 227
SWIDTH 1 0
DWIDTH 1 0
BBX 1 2 0 0
BITMAP
00
00
ENDCHAR
STARTCHAR C228
ENCODING 228
SWIDTH 1 0
DWIDTH 1 0
BBX 1 2 0 0
BITMAP
00
00
ENDCHAR
STARTCHAR C229
ENCODING 229
SWIDTH 1 0
DWIDTH 1 0
BBX 1 2 0 0
BITMAP
00
00
ENDCHAR
STARTCHAR C230
ENCODING 230
SWIDTH 1 0
DWIDTH 1 0
BBX 1 2 0 0
BITMAP
00
00
ENDCHAR
STARTCHAR C231
ENCODING 231
SWIDTH 1 0
DWIDTH 1 0
BBX 1 2 0 0
BITMAP
00
00
ENDCHAR
STARTCHAR C232
ENCODING 232
SWIDTH 1 0
DWIDTH 1 0
BBX 1 2 0 0
BITMAP
00
00
ENDCHAR
STARTCHAR C233
ENCODING 233
SWIDTH 1 0
DWIDTH 1 0
BBX 1 2 0 0
BITMAP
00
00
ENDCHAR
STARTCHAR C234
ENCODING 234
SWIDTH 1 0
DWIDTH 1 0
BBX 1 2 0 0
BITMAP
00
00
ENDCHAR
STARTCHAR C235
ENCODING 235
SWIDTH 1 0
DWIDTH 1 0
BBX 1 2 0 0
BITMAP
00
00
ENDCHAR
STARTCHAR C236
ENCODING 236
SWIDTH 1 0
DWIDTH 1 0
BBX 1 2 0 0
BITMAP
00
00
ENDCHAR
STARTCHAR C237
ENCODING 237
SWIDTH 1 0
DWIDTH 1 0
BBX 1 2 0 0
BITMAP
00
00
ENDCHAR
STARTCHAR C238
ENCODING 238
SWIDTH 1 0
DWIDTH 1 0
BBX 1 2 0 0
BITMAP
00
00
ENDCHAR
STARTCHAR C239
ENCODING 239
SWIDTH 1 0
DWIDTH 1 0
BBX 1 2 0 0
BITMAP
00
00
ENDCHAR
STARTCHAR C240
ENCODING 240
SWIDTH 1 0
DWIDTH 1 0
BBX 1 2 0 0
BITMAP
00
00
ENDCHAR
STARTCHAR C241
ENCODING 241
SWIDTH 1 0
DWIDTH 1 0
BBX 1 2 0 0
BITMAP
00
00
ENDCHAR
STARTCHAR C242
ENCODING 242
SWIDTH 1 0
DWIDTH 1 0
BBX 1 2 0 0
BITMAP
00
00
ENDCHAR
STARTCHAR C243
ENCODING 243
SWIDTH 1 0
DWIDTH 1 0
BBX 1 2 0 0
BITMAP
00
00
ENDCHAR
STARTCHAR C244
ENCODING 244
SWIDTH 1 0
DWIDTH 1 0
BBX 1 2 0 0
BITMAP
00
00
ENDCHAR
STARTCHAR C245
ENCODING 245
SWIDTH 1 0
DWIDTH 1 0
BBX 1 2 0 0
BITMAP
00
00
ENDCHAR
STARTCHAR C246
ENCODING 246
SWIDTH 1 0
DWIDTH 1 0
BBX 1 2 0 0
BITMAP
00
00
ENDCHAR
STARTCHAR C247
ENCODING 247
SWIDTH 1 0
DWIDTH 1 0
BBX 1 2 0 0
BITMAP
00
00
ENDCHAR
STARTCHAR C248
ENCODING 248
SWIDTH 1 0
DWIDTH 1 0
BBX 1 2 0 0
BITMAP
00
00
ENDCHAR
STARTCHAR C249
ENCODING 249
SWIDTH 1 0
DWIDTH 1 0
BBX 1 2 0 0
BITMAP
00
00
ENDCHAR
STARTCHAR C250
ENCODING 250
SWIDTH 1 0
DWIDTH 1 0
BBX 1 2 0 0
BITMAP
00
00
ENDCHAR
STARTCHAR C251
ENCODING 251
SWIDTH 1 0
DWIDTH 1 0
BBX 1 2 0 0
BITMAP
00
00
ENDCHAR
STARTCHAR C252
ENCODING 252
SWIDTH 1 0
DWIDTH 1 0
BBX 1 2 0 0
BITMAP
00
00
ENDCHAR
STARTCHAR C253
ENCODING 253
SWIDTH 1 0
DWIDTH 1 0
BBX 1 2 0 0
BITMAP
00
00
ENDCHAR
STARTCHAR C254
ENCODING 254
SWIDTH 1 0
DWIDTH 1 0
BBX 1 2 0 0
BITMAP
00
00
ENDCHAR
STARTCHAR C255
ENCODING 255
SWIDTH 1 0
DWIDTH 1 0
BBX 1 2 0 0
BITMAP
00
00
ENDCHAR
ENDFONT
